name C:\Users\Nicos\Documents\OpenSimProjects\SprintingProject\Study1\PredictiveResults\IC_pred_Sprinting_optimum_28-October-2023__01-01-41___HTD_Minus_2_p02_maxVel_01.mot
datacolumns 38
datarows 6
range 0.20890537 0.21440929
endheader
                time	/jointset/ground_pelvis/pelvis_tilt/value	/jointset/ground_pelvis/pelvis_list/value	/jointset/ground_pelvis/pelvis_rotation/value	/jointset/ground_pelvis/pelvis_tx/value	/jointset/ground_pelvis/pelvis_ty/value	/jointset/ground_pelvis/pelvis_tz/value	/jointset/hip_r/hip_flexion_r/value	/jointset/hip_r/hip_adduction_r/value	/jointset/hip_r/hip_rotation_r/value	/jointset/knee_r/knee_angle_r/value	/jointset/ankle_r/ankle_angle_r/value	/jointset/subtalar_r/subtalar_angle_r/value	/jointset/mtp_r/mtp_angle_r/value	/jointset/hip_l/hip_flexion_l/value	/jointset/hip_l/hip_adduction_l/value	/jointset/hip_l/hip_rotation_l/value	/jointset/knee_l/knee_angle_l/value	/jointset/ankle_l/ankle_angle_l/value	/jointset/subtalar_l/subtalar_angle_l/value	/jointset/mtp_l/mtp_angle_l/value	/jointset/back/lumbar_extension/value	/jointset/back/lumbar_bending/value	/jointset/back/lumbar_rotation/value	/jointset/acromial_r/arm_flex_r/value	/jointset/acromial_r/arm_add_r/value	/jointset/acromial_r/arm_rot_r/value	/jointset/elbow_r/elbow_flex_r/value	/jointset/radioulnar_r/pro_sup_r/value	/jointset/radius_hand_r/wrist_flex_r/value	/jointset/radius_hand_r/wrist_dev_r/value	/jointset/acromial_l/arm_flex_l/value	/jointset/acromial_l/arm_add_l/value	/jointset/acromial_l/arm_rot_l/value	/jointset/elbow_l/elbow_flex_l/value	/jointset/radioulnar_l/pro_sup_l/value	/jointset/radius_hand_l/wrist_flex_l/value	/jointset/radius_hand_l/wrist_dev_l/value	
          0.20890537	         -5.29841982	          5.80292385	         -7.18589657	          1.78144113	          0.99821139	          0.31469338	          4.94611010	        -12.34992089	          7.81035409	        -89.44231207	        -22.61342122	        -12.65526300	        -10.45405803	         58.57521635	         -5.40540344	         -0.39588948	        -39.99196016	         -9.59459669	        -21.43855036	          9.58692610	        -21.01502615	        -11.15051411	         10.26063500	         47.02644371	        -24.03392207	         -5.32871384	        110.97142282	         58.67128819	         -0.12087778	          5.98686829	        -57.63890310	        -15.04255590	         -8.31732998	         76.25696982	         76.74247140	        -22.45305802	          6.21500824	
          0.21034751	         -5.31755043	          5.78787511	         -6.84401467	          1.79819444	          0.99880077	          0.31457653	          5.37852336	        -12.28465503	          7.66223649	        -90.30670662	        -22.22355309	        -12.73999195	        -10.45793453	         57.92003425	         -5.01478321	         -0.10724772	        -39.05913167	        -10.03833261	        -21.58060844	         10.44151758	        -21.08447711	        -11.18031902	         10.17361909	         45.15176304	        -24.43693746	         -6.07003864	        109.63636136	         58.05769601	          0.00753166	          5.94241447	        -56.93792295	        -15.68531369	         -8.96346386	         76.88199816	         77.29008473	        -22.70205012	          6.17058066	
          0.21034751	         -5.31755043	          5.78787511	         -6.84401467	          1.79819444	          0.99880077	          0.31457653	          5.37852336	        -12.28465503	          7.66223649	        -90.30670662	        -22.22355309	        -12.73999195	        -10.45793453	         57.92003425	         -5.01478321	         -0.10724772	        -39.05913167	        -10.03833261	        -21.58060844	         10.44151758	        -21.08447711	        -11.18031902	         10.17361909	         45.15176304	        -24.43693746	         -6.07003864	        109.63636136	         58.05769601	          0.00753166	          5.94241447	        -56.93792295	        -15.68531369	         -8.96346386	         76.88199816	         77.29008473	        -22.70205012	          6.17058066	
          0.21097729	         -5.32691609	          5.77936949	         -6.69310006	          1.80551499	          0.99904964	          0.31452147	          5.57198849	        -12.25502584	          7.59654419	        -90.68399939	        -22.05066066	        -12.77888415	        -10.46152797	         57.63420815	         -4.84601669	          0.02329353	        -38.66313410	        -10.22456183	        -21.60458669	         10.84546707	        -21.11303705	        -11.18969442	         10.13595422	         44.33327934	        -24.59823581	         -6.40424375	        109.04732809	         57.78972832	          0.06069200	          5.92299906	        -56.62406657	        -15.96599714	         -9.24286808	         77.17113667	         77.52724641	        -22.80945296	          6.15117387	
          0.21296715	         -5.35725230	          5.74142912	         -6.21029590	          1.82865955	          0.99980558	          0.31433132	          6.19799059	        -12.15363522	          7.38494523	        -91.87440141	        -21.49724225	        -12.91151134	        -10.47388123	         56.72923886	         -4.32340553	          0.45223252	        -37.45726867	        -10.77845290	        -21.51616418	         12.14398557	        -21.20028983	        -11.20090261	         10.01834055	         41.75841535	        -25.05074390	         -7.48527406	        107.16360292	         56.94298169	          0.21700203	          5.86164427	        -55.59758422	        -16.85290065	        -10.10283359	         78.14717431	         78.26636718	        -23.14151732	          6.08982830	
          0.21440929	         -5.37886911	          5.70254594	         -5.85620423	          1.84544442	          1.00032496	          0.31417898	          6.66543214	        -12.07201971	          7.22913876	        -92.73555744	        -21.09070705	        -13.01670575	        -10.47393459	         56.07032530	         -3.95729752	          0.77456839	        -36.62482676	        -11.15226804	        -21.30841171	         13.05345898	        -21.26171340	        -11.19057732	          9.93504879	         39.91079785	        -25.32644404	         -8.27878688	        105.77908222	         56.32939375	          0.31922204	          5.81718940	        -54.81719800	        -17.49559906	        -10.69491087	         78.91149921	         78.78988545	        -23.37346652	          6.04539596	
